<svg id="Capa_1" enable-background="new 0 0 512 512" height="512" viewBox="0 0 512 512" width="512" xmlns="http://www.w3.org/2000/svg"><g><g><path clip-rule="evenodd" d="m114.959 190.719c-16.449 27.83-26.441 62.96-26.441 105.39 251.404-17.521 76.312-17.521 327.717 0 0-63.485-22.321-110.617-55.306-141.367-44.817-30.662-113.3-64.916-205.915-4.964-14.257 9.227-26.761 23.39-40.055 40.941z" fill="#6d80aa" fill-rule="evenodd"/></g><g><path clip-rule="evenodd" d="m416.236 296.109c-20.364 20.441-23.899 49.147-3.097 75.312 20.831.263 44.438-21.172 44.438-42.197v-16.47c0-9.169-7.509-16.645-16.653-16.645z" fill="#ffbc85" fill-rule="evenodd"/></g><g><path clip-rule="evenodd" d="m47.178 329.224c0 21.026 23.607 42.46 44.438 42.197 22.759-28.91 19.721-57.207-3.097-75.312h-24.688c-9.145 0-16.653 7.476-16.653 16.645z" fill="#ffbc85" fill-rule="evenodd"/></g><g><path clip-rule="evenodd" d="m313.658 154.742c29.859 27.83 50.982 69.092 54.722 123.788 10.255 8.41 24.191 15.915 47.856 17.58 0-63.485-22.321-110.617-55.306-141.367h-47.272z" fill="#49679b" fill-rule="evenodd"/></g><g><path clip-rule="evenodd" d="m190.746 252.656c-45.782-11.798-35.907 38.81-102.227 43.453v50.082c0 8.177 1.081 16.645 3.097 25.231 12.534 53.119 61.558 110.763 119.728 132.315 14.842 5.519 27.931 8.264 41.049 8.264 13.089 0 26.178-2.745 41.019-8.264 58.169-21.551 107.223-79.196 119.728-132.315 2.045-8.585 3.097-17.054 3.097-25.231v-50.082c-66.321-4.643-56.445-55.25-102.198-43.453-35.41 9.111-48.499 13.667-61.646 13.667-13.148 0-26.266-4.556-61.647-13.667z" fill="#ffe5c1" fill-rule="evenodd"/></g><g><path clip-rule="evenodd" d="m368.964 296.109v50.082c0 8.177-1.081 16.645-3.097 25.231-12.534 53.119-61.558 110.763-119.728 132.315-6.048 2.249-11.803 4.03-17.384 5.373 8.122 1.927 15.864 2.891 23.636 2.891 13.089 0 26.178-2.745 41.019-8.264 58.169-21.551 107.223-79.196 119.728-132.315 2.045-8.585 3.097-17.054 3.097-25.231v-50.082c-23.665-1.664-37.601-9.169-47.856-17.58.38 5.695.585 11.564.585 17.58z" fill="#fed1a3" fill-rule="evenodd"/></g><g><path clip-rule="evenodd" d="m299.05 60.448c-15.105 3.767-26.294 17.404-26.294 33.641 0 3.592.847 2.511-2.279 4.001-1.724.818-3.389 1.811-4.908 2.92-7.362 5.432-12.183 14.163-12.183 23.975 0 16.353 13.41 29.757 29.771 29.757h3.448 74.326 117.799c16.39 0 29.771-13.404 29.771-29.757 0-10.454-5.522-20.12-14.491-25.493-3.126-1.898-2.513-.555-2.513-4.264 0-23.303-18.757-42.197-41.983-42.489-.672 0-.555.146-.818-.38-5.843-10.98-17.384-18.456-30.677-18.456-3.652 0-7.129.584-10.43 1.606-7.012 2.219-3.857 2.57-7.509-4.994-8.181-17.025-25.623-28.764-45.782-28.764-28.047 0-50.807 22.719-50.807 50.753 0 8.061 2.512 6.192-4.441 7.944z" fill="#f8f2f0" fill-rule="evenodd"/></g><g><path clip-rule="evenodd" d="m394.499 99.579c0 20.412-4.616 39.364-12.534 55.163h96.764c16.39 0 29.771-13.404 29.771-29.757 0-10.454-5.522-20.12-14.491-25.493-3.126-1.898-2.513-.555-2.513-4.264 0-23.303-18.757-42.197-41.983-42.489-.672 0-.555.146-.818-.38-5.843-10.98-17.384-18.456-30.677-18.456-3.652 0-7.129.584-10.43 1.606-7.012 2.219-3.857 2.57-7.509-4.994-8.181-17.025-25.623-28.764-45.782-28.764-4.938 0-9.729.701-14.257 2.015 31.437 11.857 54.459 50.258 54.459 95.813z" fill="#eee1dc" fill-rule="evenodd"/></g><g><path d="m284.296 445.699c-1.983 0-3.964-.758-5.474-2.272-7.06-7.079-16.452-10.978-26.444-10.978-9.993 0-19.384 3.899-26.445 10.978-3.013 3.023-7.908 3.03-10.931.018-3.023-3.013-3.031-7.904-.017-10.927 9.981-10.01 23.26-15.523 37.393-15.523 14.132 0 27.411 5.513 37.392 15.523 3.014 3.022 3.006 7.914-.017 10.927-1.509 1.503-3.484 2.254-5.457 2.254z" fill="#6d80aa"/></g><g><path d="m182.526 362.338c-8.954 0-17.903-3.3-24.712-9.9-3.065-2.971-3.139-7.862-.167-10.926 2.972-3.062 7.865-3.138 10.93-.167 7.687 7.452 20.215 7.448 27.926-.008 3.069-2.968 7.963-2.884 10.929.182 2.968 3.067 2.887 7.959-.182 10.926-6.821 6.595-15.775 9.893-24.724 9.893z" fill="#6d80aa"/></g><g><path d="m322.233 362.332c-8.955 0-17.912-3.296-24.73-9.887-3.069-2.966-3.15-7.858-.183-10.925s7.86-3.15 10.93-.183c7.709 7.453 20.255 7.454 27.964 0 3.069-2.968 7.963-2.884 10.929.182 2.968 3.067 2.887 7.959-.182 10.926-6.817 6.591-15.773 9.887-24.728 9.887z" fill="#6d80aa"/></g><g><path clip-rule="evenodd" d="m17.29 63.427c0 13.024 5.872 8.556-3.36 16.12-6.369 5.227-10.43 13.17-10.43 22.047 0 15.769 12.767 28.53 28.544 28.53h67.314 7.947c-.351-1.489-.643-3.563-.643-6.454 0-21.493 18.581-37.671 39.208-35.743 5.084.467 3.477 1.665 5.405-2.979 5.259-12.528 16.419-21.96 30.005-24.88-1.841-19.419-19.224-33.553-38.39-31.772-4.996.467-3.418 1.635-5.317-2.92-6.282-14.892-21.007-25.376-38.215-25.376-17.179 0-31.933 10.484-38.185 25.377-1.928 4.556-.351 3.387-5.317 2.92-20.277-1.898-38.566 14.017-38.566 35.13z" fill="#f8f2f0" fill-rule="evenodd"/></g><g><path clip-rule="evenodd" d="m145.87 87.927c-20.627-1.927-39.208 14.251-39.208 35.743 0 2.891.292 4.964.643 6.454 1.227 5.373 3.272 3.913-4.061 9.929-6.486 5.315-10.605 13.404-10.605 22.427 0 13.725 9.524 25.231 22.321 28.238 2.162.526 4.382.788 6.69.788h68.482 68.483c16.04 0 29.041-12.995 29.041-29.027 0-2.687-.38-5.286-1.052-7.739h-3.448c-16.361 0-29.771-13.404-29.771-29.757 0-9.812 4.821-18.543 12.183-23.975-7.333-8.965-18.903-14.221-31.174-13.083-5.054.467-3.447 1.665-5.405-2.979-6.369-15.156-21.357-25.815-38.857-25.815-3.038 0-6.019.321-8.852.934-13.585 2.92-24.746 12.353-30.005 24.88-1.928 4.647-.321 3.45-5.405 2.982z" fill="#f8f2f0" fill-rule="evenodd"/></g><g><path clip-rule="evenodd" d="m72.392 9.987c14.608 18.164 23.752 44.037 23.752 72.772 0 17.142-3.243 33.29-8.999 47.366h12.212 7.947c-.351-1.489-.643-3.563-.643-6.454 0-21.493 18.581-37.671 39.208-35.743 5.084.467 3.477 1.665 5.405-2.979 3.477-8.235 9.495-15.156 17.062-19.741 3.944-2.395 8.297-4.147 12.943-5.14-1.841-19.419-19.224-33.553-38.39-31.772-4.996.467-3.418 1.635-5.317-2.92-6.281-14.892-21.006-25.376-38.214-25.376-10.313 0-19.721 3.767-26.966 9.987z" fill="#eee1dc" fill-rule="evenodd"/></g><g><path clip-rule="evenodd" d="m214.06 112.72c0 32.064-11.394 60.565-29.07 78.787h5.142 68.483c16.04 0 29.041-12.995 29.041-29.027 0-2.687-.38-5.286-1.052-7.739h-3.448c-16.361 0-29.771-13.404-29.771-29.757 0-9.812 4.821-18.543 12.183-23.975-7.333-8.965-18.903-14.221-31.174-13.083-5.054.467-3.447 1.665-5.405-2.979-4.704-11.184-14.082-19.916-25.71-23.712 6.866 15.012 10.781 32.65 10.781 51.485z" fill="#eee1dc" fill-rule="evenodd"/></g><g><path d="m315.501 102.723c-.759 0-1.531-.113-2.294-.35-4.077-1.265-6.356-5.595-5.091-9.67 2.092-6.735 7.669-15.252 22.359-17.576 4.224-.668 8.176 2.209 8.844 6.423.667 4.215-2.21 8.173-6.426 8.84-7.295 1.154-9.155 4.133-10.012 6.895-1.029 3.313-4.083 5.438-7.38 5.438z" fill="#eee1dc"/></g><g><path d="m144.235 135.108c-.821 0-1.657-.132-2.479-.409-4.043-1.368-6.212-5.753-4.844-9.795 2.968-8.769 11.245-15.231 21.601-16.865 4.221-.664 8.175 2.212 8.841 6.427s-2.213 8.171-6.429 8.837c-4.659.735-8.249 3.246-9.368 6.554-1.091 3.219-4.099 5.251-7.322 5.251z" fill="#eee1dc"/></g><g><path d="m50.719 79.184c-.126 0-.253-.003-.38-.009-4.263-.207-7.552-3.829-7.346-8.092.332-6.843 3.498-16.206 16.701-21.953 3.913-1.704 8.469.087 10.172 3.999 1.705 3.912-.087 8.465-4.001 10.169-6.318 2.75-7.302 5.857-7.432 8.534-.2 4.134-3.617 7.352-7.714 7.352z" fill="#eee1dc"/></g><g><path clip-rule="evenodd" d="m101.812 427.606c-3.214 7.914-5.376 15.506-5.376 21.201 0 29.202 30.034 38.78 49.726 28.735 9.641-4.906 16.799-14.484 16.799-28.735 0-15.156-15.251-43.686-25.447-56.389-2.834-3.533-5.317-5.315-7.801-5.315h-.058c-2.454 0-4.938 1.781-7.771 5.315-6.37 7.942-14.696 22.018-20.072 35.188z" fill="#22a6fe" fill-rule="evenodd"/></g><g><path clip-rule="evenodd" d="m124.338 389.731c9.758 14.134 15.397 37.817 15.397 51.162 0 21.902-12.066 35.539-33.189 32.093 2.98 2.657 6.457 4.702 10.196 6.103 9.408 3.533 20.48 3.008 29.421-1.548 9.641-4.906 16.799-14.484 16.799-28.735 0-15.156-15.251-43.686-25.447-56.389-2.834-3.533-5.317-5.315-7.801-5.315h-.058c-1.725.001-3.478.877-5.318 2.629z" fill="#0182fc" fill-rule="evenodd"/></g></g></svg>