<?xml version="1.0" encoding="utf-8"?>
<!-- Generator: Adobe Illustrator 24.0.2, SVG Export Plug-In . SVG Version: 6.00 Build 0)  -->
<svg version="1.1" id="Capa_1" xmlns="http://www.w3.org/2000/svg" xmlns:xlink="http://www.w3.org/1999/xlink" x="0px" y="0px"
	 viewBox="0 0 100 100" style="enable-background:new 0 0 100 100;" xml:space="preserve">
<style type="text/css">
	.st0{fill:#BCFF0F;}
	.st1{fill:none;stroke:#BCFF0F;stroke-width:3;stroke-linecap:round;stroke-linejoin:round;stroke-miterlimit:10;}
</style>
<g>
	<polygon class="st1" points="57.5,70.3 71.9,77.3 75.3,70.4 	"/>
	<path class="st1" d="M42.5,91h39.9c2.8,0,5.2-2.3,5.2-5.2c0-2.8-2.2-5-4.9-5.1H47"/>
	<path class="st1" d="M47,80.7h35.3c0.1,0,0.2,0,0.2,0h0.2c2.8,0,5.2-2.3,5.2-5.2v0c0-2.8-2.3-5.2-5.2-5.2H48.6"/>
	<path class="st1" d="M47,80.7L47,80.7l35.6,0c-0.1,0-0.2,0-0.2,0H47z"/>
	<path class="st1" d="M48.6,70.4h34.2c2.8,0,5.2-2.3,5.2-5.2v0c0,0-3.4-15.5-27.6-15.5c-3.3,0-6.2,0.3-8.7,0.8"/>
	<path class="st1" d="M33.5,85.9c0-2.8,2.3-5.2,5.2-5.2h0.2c-2.7-0.1-4.9-2.4-4.9-5.1v0c0-2.8,2.3-5.2,5.2-5.2
		c-2.8,0-5.2-2.3-5.2-5.2v0c0,0,1.7-11.6,17.7-14.7L54,35.7c0.4-2.3-1.4-4.4-3.8-4.4H29.8h-13c-2.4,0-4.2,2.2-3.7,4.6l11.1,52.3
		c0.4,1.7,1.9,2.9,3.6,2.9h10.9C35.8,91,33.5,88.7,33.5,85.9z"/>
	<path class="st1" d="M47,80.7h-7.9c-0.1,0-0.2,0-0.2,0h-0.2c-2.8,0-5.2,2.3-5.2,5.2c0,2.8,2.3,5.2,5.2,5.2h3.8"/>
	<path class="st1" d="M48.6,70.4h-9.5c-2.8,0-5.2,2.3-5.2,5.2v0c0,2.8,2.2,5,4.9,5.1H47"/>
	<path class="st1" d="M39.1,80.7H47l0,0h-8.1C39,80.7,39,80.7,39.1,80.7z"/>
	<polyline class="st1" points="37.2,31.5 50,6 55.8,14 	"/>
</g>
</svg>
